<svg width="200" height="176" viewBox="0 0 200 176" fill="none" xmlns="http://www.w3.org/2000/svg">
<path d="M180 24H150.13L135.32 1.78C134.955 1.23346 134.462 0.785155 133.883 0.474705C133.304 0.164254 132.657 0.00121646 132 0H68C67.343 0.00121646 66.6964 0.164254 66.1173 0.474705C65.5383 0.785155 65.0446 1.23346 64.68 1.78L49.85 24H20C14.6957 24 9.60859 26.1071 5.85786 29.8579C2.10714 33.6086 0 38.6957 0 44V156C0 161.304 2.10714 166.391 5.85786 170.142C9.60859 173.893 14.6957 176 20 176H180C185.304 176 190.391 173.893 194.142 170.142C197.893 166.391 200 161.304 200 156V44C200 38.6957 197.893 33.6086 194.142 29.8579C190.391 26.1071 185.304 24 180 24ZM192 156C192 159.183 190.736 162.235 188.485 164.485C186.235 166.736 183.183 168 180 168H20C16.8174 168 13.7652 166.736 11.5147 164.485C9.26428 162.235 8 159.183 8 156V44C8 40.8174 9.26428 37.7652 11.5147 35.5147C13.7652 33.2643 16.8174 32 20 32H52C52.6587 32.0004 53.3073 31.8382 53.8883 31.5276C54.4692 31.2171 54.9644 30.7679 55.33 30.22L70.13 8H129.85L144.67 30.22C145.036 30.7679 145.531 31.2171 146.112 31.5276C146.693 31.8382 147.341 32.0004 148 32H180C183.183 32 186.235 33.2643 188.485 35.5147C190.736 37.7652 192 40.8174 192 44V156ZM100 56C92.0887 56 84.3552 58.346 77.7772 62.7412C71.1992 67.1365 66.0723 73.3836 63.0448 80.6927C60.0173 88.0017 59.2252 96.0444 60.7686 103.804C62.312 111.563 66.1216 118.69 71.7157 124.284C77.3098 129.878 84.4371 133.688 92.1964 135.231C99.9556 136.775 107.998 135.983 115.307 132.955C122.616 129.928 128.864 124.801 133.259 118.223C137.654 111.645 140 103.911 140 96C140 85.3913 135.786 75.2172 128.284 67.7157C120.783 60.2143 110.609 56 100 56ZM100 128C93.671 128 87.4841 126.123 82.2218 122.607C76.9594 119.091 72.8579 114.093 70.4359 108.246C68.0138 102.399 67.3801 95.9645 68.6149 89.7571C69.8496 83.5497 72.8973 77.8479 77.3726 73.3726C81.8479 68.8973 87.5497 65.8496 93.7571 64.6149C99.9645 63.3801 106.399 64.0138 112.246 66.4359C118.093 68.8579 123.091 72.9594 126.607 78.2218C130.123 83.4841 132 89.671 132 96C132 104.487 128.629 112.626 122.627 118.627C116.626 124.629 108.487 128 100 128Z" fill="#727477"/>
</svg>
